<svg xmlns="http://www.w3.org/2000/svg" width="24" height="24" viewBox="0 0 24 24">
    <path fill="#676375" fill-rule="evenodd" d="M5.91 3.562c1.416-1.416 3.711-1.416 5.127 0 .649.649 1.015 1.501 1.057 2.387l.003.172.162.164c.592.576 1.286 1.038 2.046 1.362l.222.089.082-.033c1.245-.465 2.67-.212 3.685.7l.142.134c1.416 1.415 1.416 3.71 0 5.126l-1.679 1.68 4.242 4.242c.391.39.391 1.024 0 1.414-.39.391-1.023.391-1.414 0l-4.242-4.242-1.68 1.68c-1.365 1.364-3.548 1.413-4.971.145l-.155-.146c-1.033-1.032-1.327-2.558-.819-3.871l.03-.072-.084-.206c-.33-.754-.791-1.443-1.363-2.036l-.157-.155h-.123c-.841-.023-1.657-.338-2.302-.91l-.157-.15c-1.416-1.415-1.416-3.71 0-5.126zm3.713 1.414c-.635-.635-1.664-.635-2.298 0L4.976 7.325c-.635.634-.635 1.663 0 2.298.368.368.88.532 1.385.457l.124-.01c.246-.006.488.08.677.244 1.209 1.048 2.114 2.4 2.62 3.916.092.274.06.573-.085.822-.37.632-.272 1.444.254 1.97.635.635 1.663.635 2.298 0l4.773-4.773c.635-.635.635-1.663 0-2.298-.52-.52-1.318-.622-1.947-.265l-.106.052c-.219.092-.464.103-.692.03-1.54-.494-2.914-1.407-3.963-2.638-.185-.216-.269-.502-.23-.784l.014-.167c.015-.445-.152-.88-.475-1.203z"/>
</svg>
